<?xml version="1.0" encoding="utf-8"?>
<!-- Generator: Adobe Illustrator 19.1.0, SVG Export Plug-In . SVG Version: 6.00 Build 0)  -->
<svg version="1.1" id="Layer_1" xmlns:sketch="http://www.bohemiancoding.com/sketch/ns"
	 xmlns="http://www.w3.org/2000/svg" xmlns:xlink="http://www.w3.org/1999/xlink" x="0px" y="0px" viewBox="-119 121 60 60"
	 style="enable-background:new -119 121 60 60;" xml:space="preserve">
<style type="text/css">
	.st0{fill:#FFFFFF;}
</style>
<title>buildings-17</title>
<desc>Created with Sketch.</desc>
<g id="Page-1" sketch:type="MSPage">
	<g id="buildings-17" sketch:type="MSLayerGroup">
		<path id="Fill-220" sketch:type="MSShapeGroup" class="st0" d="M-117,145h15v36h-15V145z M-115,179h11v-32h-11V179z"/>
		<path id="Fill-221" sketch:type="MSShapeGroup" class="st0" d="M-76,145h15v36h-15V145z M-74,179h11v-32h-11V179z"/>
		<path id="Fill-222" sketch:type="MSShapeGroup" class="st0" d="M-104,133h30v48h-30V133z M-102,179h26v-44h-26V179z"/>
		<path id="Fill-223" sketch:type="MSShapeGroup" class="st0" d="M-60,181h-58c-0.6,0-1-0.4-1-1s0.4-1,1-1h58c0.6,0,1,0.4,1,1
			S-59.4,181-60,181"/>
		<path id="Fill-224" sketch:type="MSShapeGroup" class="st0" d="M-97,127h18v8h-18V127z M-95,133h14v-4h-14V133z"/>
		<path id="Fill-225" sketch:type="MSShapeGroup" class="st0" d="M-88,129c-0.6,0-1-0.4-1-1v-6c0-0.6,0.4-1,1-1s1,0.4,1,1v6
			C-87,128.6-87.4,129-88,129"/>
		<path id="Fill-226" sketch:type="MSShapeGroup" class="st0" d="M-99,177c-0.6,0-1-0.4-1-1v-38c0-0.6,0.4-1,1-1s1,0.4,1,1v38
			C-98,176.6-98.4,177-99,177"/>
		<path id="Fill-227" sketch:type="MSShapeGroup" class="st0" d="M-94,177c-0.6,0-1-0.4-1-1v-38c0-0.6,0.4-1,1-1s1,0.4,1,1v38
			C-93,176.6-93.4,177-94,177"/>
		<path id="Fill-228" sketch:type="MSShapeGroup" class="st0" d="M-89,177c-0.6,0-1-0.4-1-1v-38c0-0.6,0.4-1,1-1s1,0.4,1,1v38
			C-88,176.6-88.4,177-89,177"/>
		<path id="Fill-229" sketch:type="MSShapeGroup" class="st0" d="M-84,177c-0.6,0-1-0.4-1-1v-38c0-0.6,0.4-1,1-1s1,0.4,1,1v38
			C-83,176.6-83.4,177-84,177"/>
		<path id="Fill-230" sketch:type="MSShapeGroup" class="st0" d="M-79,177c-0.6,0-1-0.4-1-1v-38c0-0.6,0.4-1,1-1s1,0.4,1,1v38
			C-78,176.6-78.4,177-79,177"/>
		<path id="Fill-231" sketch:type="MSShapeGroup" class="st0" d="M-113,150h7v11h-7V150z M-111,159h3v-7h-3V159z"/>
		<path id="Fill-232" sketch:type="MSShapeGroup" class="st0" d="M-113,165h7v11h-7V165z M-111,174h3v-7h-3V174z"/>
		<path id="Fill-233" sketch:type="MSShapeGroup" class="st0" d="M-66,150h-5c-0.6,0-1-0.4-1-1s0.4-1,1-1h5c0.6,0,1,0.4,1,1
			S-65.4,150-66,150"/>
		<path id="Fill-234" sketch:type="MSShapeGroup" class="st0" d="M-66,154h-5c-0.6,0-1-0.4-1-1s0.4-1,1-1h5c0.6,0,1,0.4,1,1
			S-65.4,154-66,154"/>
		<path id="Fill-235" sketch:type="MSShapeGroup" class="st0" d="M-66,158h-5c-0.6,0-1-0.4-1-1s0.4-1,1-1h5c0.6,0,1,0.4,1,1
			S-65.4,158-66,158"/>
		<path id="Fill-236" sketch:type="MSShapeGroup" class="st0" d="M-66,162h-5c-0.6,0-1-0.4-1-1s0.4-1,1-1h5c0.6,0,1,0.4,1,1
			S-65.4,162-66,162"/>
		<path id="Fill-237" sketch:type="MSShapeGroup" class="st0" d="M-66,166h-5c-0.6,0-1-0.4-1-1s0.4-1,1-1h5c0.6,0,1,0.4,1,1
			S-65.4,166-66,166"/>
		<path id="Fill-238" sketch:type="MSShapeGroup" class="st0" d="M-66,170h-5c-0.6,0-1-0.4-1-1s0.4-1,1-1h5c0.6,0,1,0.4,1,1
			S-65.4,170-66,170"/>
		<path id="Fill-239" sketch:type="MSShapeGroup" class="st0" d="M-66,174h-5c-0.6,0-1-0.4-1-1s0.4-1,1-1h5c0.6,0,1,0.4,1,1
			S-65.4,174-66,174"/>
		<path id="Fill-240" sketch:type="MSShapeGroup" class="st0" d="M-66,178h-5c-0.6,0-1-0.4-1-1s0.4-1,1-1h5c0.6,0,1,0.4,1,1
			S-65.4,178-66,178"/>
	</g>
</g>
</svg>
