<?xml version="1.0" encoding="utf-8"?>
<!-- Generator: Adobe Illustrator 19.1.0, SVG Export Plug-In . SVG Version: 6.00 Build 0)  -->
<svg version="1.1" xmlns="http://www.w3.org/2000/svg" xmlns:xlink="http://www.w3.org/1999/xlink" x="0px" y="0px"
	 viewBox="18 -15 54 41" style="enable-background:new 18 -15 54 41;" xml:space="preserve">
<style type="text/css">
	.st0{display:none;}
	.st1{display:inline;}
	.st2{fill:#FFFFFF;}
	.st3{fill:none;stroke:#FFFFFF;stroke-width:2;stroke-linecap:round;stroke-linejoin:round;stroke-miterlimit:10;}
</style>
<g id="Layer_6" class="st0">
	<rect x="18" y="-15" class="st1" width="54" height="41"/>
</g>
<g id="Layer_4">
	<g>
		<path class="st2" d="M53.9-13c0.7,0.2,2.9,1.2,3.8,4.1c0.9,2.9,3.8,4.7,8.2,5.1c0,0,0.1,0,0.1,0l0.8,0c0,0,0.1,0,0.1,0
			c0,0,0.1,0,0.1,0c1.1,0,1.9,0.9,1.9,2v23.8c0,1.1-0.9,2-2,2H22c-1.1,0-2-0.9-2-2V1.2c0-1.2,1.3-4.4,7.2-5l10-1.1
			c0.2,0,0.4-0.1,0.6-0.2c1.8-0.4,4.4-1.7,5.4-4.5c1.1-3,3.3-3.4,3.6-3.4h0.2H53.9L53.9-13 M54.2-15h-0.3h-6.8h-0.3
			c0,0-3.7,0.2-5.4,4.7c-1.1,3-4.6,3.3-4.6,3.3l0.2,0L27-5.7c-6.9,0.7-9,4.8-9,7v20.8c0,2.2,1.8,4,4,4h45c2.2,0,4-1.8,4-4V-1.7
			c0-2.1-1.7-3.9-3.8-4l0,0c0,0,0,0,0,0c0,0-0.1,0-0.1,0l-0.9,0c-1.8-0.2-5.6-0.9-6.5-3.7C58.2-14.1,54.2-15,54.2-15L54.2-15z"/>
	</g>
</g>
<g id="Layer_7">
	<g>
		<path class="st2" d="M50.5-3.9c7.7,0,14,6.3,14,14s-6.3,14-14,14s-14-6.3-14-14S42.8-3.9,50.5-3.9 M50.5-5.9c-8.8,0-16,7.2-16,16
			s7.2,16,16,16s16-7.2,16-16S59.3-5.9,50.5-5.9L50.5-5.9z"/>
	</g>
	<g>
		<path class="st2" d="M27.9-6.3l0,0.5c-1.4,0.2-3.1,0.4-4.7,1v-1.5H27.9 M29-8.3h-6.9c-0.5,0-0.8,0.4-0.8,0.8v3.5
			c0,0.5,0.3,1.9,0.8,1.9l1.4-0.8c2.2-0.9,5.3-1.1,6.6-1.3l-0.2-3.4C29.8-8,29.5-8.3,29-8.3L29-8.3z"/>
	</g>
	<line class="st3" x1="29" y1="1" x2="29" y2="19"/>
</g>
<g id="Layer_8">
	<g>
		<path class="st2" d="M50.5,1.2c4.9,0,8.9,4,8.9,8.9s-4,8.9-8.9,8.9s-8.9-4-8.9-8.9S45.6,1.2,50.5,1.2 M50.5-0.8
			c-6,0-10.9,4.9-10.9,10.9S44.5,21,50.5,21s10.9-4.9,10.9-10.9S56.6-0.8,50.5-0.8L50.5-0.8z"/>
	</g>
</g>
<g id="Layer_5">
</g>
</svg>
