<?xml version="1.0" encoding="utf-8"?>
<!-- Generator: Adobe Illustrator 19.1.0, SVG Export Plug-In . SVG Version: 6.00 Build 0)  -->
<svg version="1.1" id="Layer_1" xmlns="http://www.w3.org/2000/svg" xmlns:xlink="http://www.w3.org/1999/xlink" x="0px" y="0px"
	 viewBox="-11 -1 31 57" style="enable-background:new -11 -1 31 57;" xml:space="preserve">
<style type="text/css">
	.st0{fill:#FFFFFF;}
</style>
<g>
	<g>
		<path class="st0" d="M15-1H-6c-2.8,0-5,2.2-5,5v47c0,2.8,2.2,5,5,5h21c2.8,0,5-2.2,5-5V4C20,1.2,17.8-1,15-1z M18,51
			c0,1.7-1.3,3-3,3H-6c-1.7,0-3-1.3-3-3V4c0-1.7,1.3-3,3-3h21c1.7,0,3,1.3,3,3V51z M4.7,4c0.6,0,1-0.4,1-1s-0.4-1-1-1s-1,0.4-1,1
			C3.7,3.6,4.1,4,4.7,4z M7,5H2C1.4,5,1,5.4,1,6s0.4,1,1,1h5c0.6,0,1-0.4,1-1S7.6,5,7,5z M4.6,46H4.5c-1.9,0-3.4,1.5-3.4,3.4v0.1
			c0,1.9,1.5,3.4,3.4,3.4h0.1c1.9,0,3.4-1.5,3.4-3.4v-0.1C8,47.5,6.5,46,4.6,46z M6,49.6C6,50.4,5.4,51,4.6,51H4.5
			c-0.8,0-1.4-0.6-1.4-1.4v-0.1c0-0.8,0.6-1.4,1.4-1.4h0.1C5.4,48.1,6,48.7,6,49.6L6,49.6z"/>
	</g>
</g>
</svg>
