<?xml version="1.0" encoding="utf-8"?>
<!-- Generator: Adobe Illustrator 19.1.0, SVG Export Plug-In . SVG Version: 6.00 Build 0)  -->
<svg version="1.1" id="Layer_1" xmlns="http://www.w3.org/2000/svg" xmlns:xlink="http://www.w3.org/1999/xlink" x="0px" y="0px"
	 viewBox="-122 132 54.6 38" style="enable-background:new -122 132 54.6 38;" xml:space="preserve">
<style type="text/css">
	.st0{fill:#FFFFFF;}
</style>
<g>
	<g>
		<path class="st0" d="M-111.7,160.4c-2-3.4-2.8-7.3-2.3-11.3c1.3-9.6,10.1-16.3,19.7-15c9.6,1.3,16.3,10.1,15,19.7
			c-0.5,4-2.3,7.5-5.2,10.3l1.4,1.4c3.2-3.1,5.2-7,5.8-11.4c1.4-10.7-6-20.5-16.7-21.9c-10.6-1.5-20.5,6-21.9,16.7
			c-0.6,4.4,0.3,8.8,2.6,12.6L-111.7,160.4z M-67.9,165.1c-0.1,0-11.8,3.2-15.7,3c-2.5-0.2-6-1.2-9.7-2.3c-4.5-1.4-9.2-2.8-12.4-2.7
			c-4.3,0.1-15.8,4.8-16.3,5l0.8,1.9c0.1,0,11.7-4.8,15.7-4.9c2.9-0.1,7.4,1.2,11.8,2.6c3.8,1.2,7.5,2.3,10.1,2.4c0.2,0,0.3,0,0.5,0
			c4.6,0,15.3-2.9,15.8-3L-67.9,165.1z"/>
	</g>
</g>
</svg>
