<?xml version="1.0" encoding="utf-8"?>
<!-- Generator: Adobe Illustrator 19.1.0, SVG Export Plug-In . SVG Version: 6.00 Build 0)  -->
<svg version="1.1" xmlns="http://www.w3.org/2000/svg" xmlns:xlink="http://www.w3.org/1999/xlink" x="0px" y="0px"
	 viewBox="0 0 54 54" style="enable-background:new 0 0 54 54;" xml:space="preserve">
<style type="text/css">
	.st0{display:none;}
	.st1{display:inline;fill:#231F20;}
	.st2{fill:#FFFFFF;}
	.st3{fill:none;stroke:#FFFFFF;stroke-width:2;stroke-linecap:round;stroke-linejoin:round;stroke-miterlimit:10;}
</style>
<g id="Layer_7" class="st0">
	<rect class="st1" width="54" height="54"/>
</g>
<g id="Layer_4">
	<g>
		<path class="st2" d="M33.3,3c2.1,0,3.8,0.3,3.9,0.3c0.1,0,0.2,0,0.4,0c0,0,0.1,0,0.1,0c0.2,0,1.6,0.3,2.4,3.3
			c0.7,2.3,4.7,3.8,8,4.7c0.1,0,0.2,0.1,0.3,0.1c2.5,0.6,3.2,4.2,3.2,6v24.5l0,0.1c-0.5,5.6-1,8.4-6.2,9.5H8.7
			c-4.3-0.6-6.2-3.5-6.2-9.3V17.4c0-3,1.3-6.7,7.4-6.7l1.5,0l3.9,0.1c0,0,0,0,0,0c0,0,0,0,0.1,0c6.4-0.2,10.1-1.5,11.3-4.1
			c0.2-0.5,0.4-0.9,0.5-1.2c0.3-0.7,0.6-1.4,0.7-1.5c0.2-0.1,1.2-0.4,2.1-0.6C31,3.1,32.1,3,33.3,3 M33.3,1c-1.2,0-2.4,0.1-3.6,0.4
			c-3.6,0.8-3.1,0.7-4.8,4.5c-1.1,2.3-5.9,2.9-9.5,3l-3.9-0.1h0l-1.5,0c-3.3,0-9.5,1.2-9.5,8.7v24.8c0,4.1,0.8,10.3,8,11.3h37
			c7.2-1.5,7.5-6.1,8-11.5V17.4c0-3-1.2-7.2-4.8-8l0,0c0,0-6.3-1.6-6.8-3.3c-1.3-4.5-3.9-4.7-4.3-4.7c0,0-0.1,0-0.1,0S35.6,1,33.3,1
			L33.3,1z"/>
	</g>
</g>
<g id="Layer_5">
	<g>
		<path class="st2" d="M33,14c7.2,0,13,5.8,13,13s-5.8,13-13,13s-13-5.8-13-13S25.8,14,33,14 M33,12c-8.3,0-15,6.7-15,15
			s6.7,15,15,15s15-6.7,15-15S41.3,12,33,12L33,12z"/>
	</g>
</g>
<g id="Layer_6">
	<g>
		<path class="st2" d="M33,18c5,0,9,4,9,9s-4,9-9,9s-9-4-9-9S28,18,33,18 M33,16c-6.1,0-11,4.9-11,11s4.9,11,11,11s11-4.9,11-11
			S39.1,16,33,16L33,16z"/>
	</g>
	<g>
		<path class="st2" d="M8,12c-1.1,0-2,0.9-2,2s0.9,2,2,2s2-0.9,2-2S9.1,12,8,12L8,12z"/>
	</g>
	<line class="st3" x1="12" y1="23" x2="12" y2="43"/>
</g>
</svg>
